<svg width="23" height="27" viewBox="0 0 23 27" fill="none" xmlns="http://www.w3.org/2000/svg">
<path d="M10.35 25.65V0.475201C9.81287 0.166173 9.22316 0.00372214 8.625 0C7.81329 0.00096957 7.0208 0.290018 6.35154 0.829206C5.68228 1.36839 5.16753 2.13253 4.87485 3.0213C4.02305 3.40829 3.30869 4.12386 2.84913 5.05047C2.38958 5.97708 2.21215 7.05962 2.346 8.12026C1.97017 8.55516 1.67085 9.07258 1.4651 9.64307C1.4168 9.77807 1.3915 9.92522 1.3501 10.0656C1.30158 10.2174 1.26088 10.3725 1.2282 10.53C1.11643 11.1851 1.12427 11.8606 1.2512 12.5118C0.864633 12.9961 0.557433 13.56 0.345 14.175L0.32775 14.2236C0.21491 14.5634 0.131685 14.9158 0.07935 15.2753C0.0303097 15.5803 0.00376137 15.8897 0 16.2C0.00383333 16.5249 0.0314334 16.8471 0.0828 17.1666C0.138051 17.5514 0.228663 17.928 0.35305 18.2898L0.3772 18.3452C0.507333 18.6911 0.668065 19.0201 0.85675 19.3266C0.977883 19.5246 1.10898 19.7114 1.25005 19.8869C1.33362 19.9886 1.41987 20.0858 1.5088 20.1785C1.6238 20.3018 1.74455 20.4188 1.87105 20.5295C1.99755 20.6388 2.10105 20.7185 2.22525 20.7995L2.2931 20.8535V20.925C2.29436 22.068 2.64787 23.1717 3.28835 24.0326C3.92883 24.8934 4.81301 25.453 5.7776 25.6082C6.38785 26.3409 7.18812 26.815 8.05275 26.956C8.91739 27.097 9.79743 26.8969 10.5547 26.3871C10.4247 26.1713 10.3533 25.9144 10.35 25.65ZM22.9241 15.282C22.8721 14.9226 22.7893 14.5702 22.6768 14.2304L22.6573 14.1791C22.4445 13.5624 22.1365 12.9971 21.7488 12.5118C21.8782 11.8608 21.8849 11.1844 21.7684 10.53C21.7375 10.3777 21.6991 10.2276 21.6534 10.0805C21.6143 9.93467 21.5878 9.78347 21.5383 9.64307C21.3326 9.07258 21.0333 8.55516 20.6574 8.12026C20.7911 7.05913 20.6131 5.97621 20.1529 5.04953C19.6927 4.12285 18.9776 3.40758 18.1251 3.0213C17.8325 2.13253 17.3177 1.36839 16.6485 0.829206C15.9792 0.290018 15.1867 0.00096957 14.375 0C13.7768 0.00372214 13.1871 0.166173 12.65 0.475201V25.65C12.6447 25.9152 12.5709 26.1723 12.4384 26.3871C13.1957 26.8969 14.0757 27.097 14.9403 26.956C15.805 26.815 16.6052 26.3409 17.2155 25.6082C18.1801 25.453 19.0643 24.8934 19.7047 24.0326C20.3452 23.1717 20.6987 22.068 20.7 20.925V20.8589L20.7678 20.8049C20.8897 20.7185 21.0078 20.6285 21.122 20.5349C21.2934 20.3945 21.3681 20.3067 21.4843 20.1839C21.5732 20.0903 21.6595 19.9931 21.743 19.8923C21.9397 19.6476 22.1164 19.3818 22.2709 19.0985C22.4035 18.8609 22.5185 18.6116 22.6159 18.3506L22.64 18.2952C22.7405 18.0072 22.8191 17.7107 22.8758 17.4056C22.8904 17.3282 22.9038 17.2503 22.916 17.172C22.969 16.8516 22.9969 16.5276 23 16.2C22.997 15.892 22.9717 15.5849 22.9241 15.282Z" fill="#6B7280"/>
</svg>
