<svg width="23" height="27" viewBox="0 0 23 27" fill="none" xmlns="http://www.w3.org/2000/svg">
<path d="M11.5 0C2.55556 0 0 6.75 0 14.625C0 22.5 3.19444 27 7.02778 27H7.36319C8.32951 27 9.21597 26.0367 9.64722 24.5109L10.5736 21.2555C10.7493 20.6367 11.1047 20.25 11.5 20.25C11.8953 20.25 12.2507 20.6367 12.4264 21.2555L13.3528 24.5109C13.784 26.0367 14.6705 27 15.6368 27H15.9722C19.8056 27 23 22.5 23 14.625C23 6.75 20.4444 0 11.5 0ZM3.83333 13.5C3.83333 12.3065 4.10258 11.1619 4.58184 10.318C5.0611 9.4741 5.71111 9 6.38889 9C7.06666 9 7.71668 9.4741 8.19594 10.318C8.6752 11.1619 8.94444 12.3065 8.94444 13.5C8.94444 14.6935 8.6752 15.8381 8.19594 16.682C7.71668 17.5259 7.06666 18 6.38889 18C5.71111 18 5.0611 17.5259 4.58184 16.682C4.10258 15.8381 3.83333 14.6935 3.83333 13.5ZM16.6111 9C17.2889 9 17.9389 9.4741 18.4182 10.318C18.8974 11.1619 19.1667 12.3065 19.1667 13.5C19.1667 14.6935 18.8974 15.8381 18.4182 16.682C17.9389 17.5259 17.2889 18 16.6111 18C15.9333 18 15.2833 17.5259 14.8041 16.682C14.3248 15.8381 14.0556 14.6935 14.0556 13.5C14.0556 12.3065 14.3248 11.1619 14.8041 10.318C15.2833 9.4741 15.9333 9 16.6111 9Z" fill="#6B7280"/>
</svg>
