<svg width="25" height="29" viewBox="0 0 25 29" fill="none" xmlns="http://www.w3.org/2000/svg">
<path d="M4.83337 11.6666H7.48337V19.9999C7.48337 20.9166 8.23337 21.6666 9.15004 21.6666H15.8167C16.7334 21.6666 17.4834 20.9166 17.4834 19.9999V11.6666H20.1334C21.6167 11.6666 22.3667 9.86661 21.3167 8.81661L13.6667 1.16661C13.5125 1.0121 13.3294 0.889521 13.1277 0.805885C12.9261 0.722249 12.71 0.679199 12.4917 0.679199C12.2734 0.679199 12.0573 0.722249 11.8557 0.805885C11.654 0.889521 11.4709 1.0121 11.3167 1.16661L3.66671 8.81661C2.61671 9.86661 3.35004 11.6666 4.83337 11.6666ZM0.833374 26.6666C0.833374 27.5833 1.58337 28.3333 2.50004 28.3333H22.5C23.4167 28.3333 24.1667 27.5833 24.1667 26.6666C24.1667 25.7499 23.4167 24.9999 22.5 24.9999H2.50004C1.58337 24.9999 0.833374 25.7499 0.833374 26.6666Z" fill="white"/>
</svg>
